General
Complete name                            : C:UsersHomero PereiraDownloadsDownsGame.of.Thrones.S03E02.HDTV.XviD.Dublado-Coveiro.avi
Format                                   : AVI
Format/Info                              : Audio Video Interleave
File size                                : 475 MiB
Duration                                 : 58mn 34s
Overall bit rate                         : 1 134 Kbps

Video
ID                                       : 0
Format                                   : MPEG-4 Visual
Format profile                           : Advanced Simple@L5
Format settings, BVOP                    : 2
Format settings, QPel                    : No
Format settings, GMC                     : No warppoints
Format settings, Matrix                  : Default (H.263)
Codec ID                                 : XVID
Codec ID/Hint                            : XviD
Duration                                 : 58mn 34s
Bit rate                                 : 1 000 Kbps
Width                                    : 640 pixels
Height                                   : 356 pixels
Display aspect ratio                     : 16:9
Frame rate                               : 23.976 fps
Color space                              : YUV
Chroma subsampling                       : 4:2:0
Bit depth                                : 8 bits
Scan type                                : Progressive
Compression mode                         : Lossy
Bits/(Pixel*Frame)                       : 0.183
Stream size                              : 419 MiB (88%)
Writing library                          : XviD 64

Audio
ID                                       : 1
Format                                   : MPEG Audio
Format version                           : Version 1
Format profile                           : Layer 3
Mode                                     : Joint stereo
Mode extension                           : MS Stereo
Codec ID                                 : 55
Codec ID/Hint                            : MP3
Duration                                 : 58mn 34s
Bit rate mode                            : Constant
Bit rate                                 : 128 Kbps
Channel(s)                               : 2 channels
Sampling rate                            : 44.1 KHz
Compression mode                         : Lossy
Stream size                              : 53.6 MiB (11%)
Alignment                                : Aligned on interleaves
Interleave, duration                     : 167 ms (4.00 video frames)
Interleave, preload duration             : 208 ms
Title                                    : Portuguese _ By Coveiro
Writing library                          : LAME3.98.2